<?xml version="1.0" standalone="no"?>
<!DOCTYPE svg PUBLIC "-//W3C//DTD SVG 20010904//EN"
 "http://www.w3.org/TR/2001/REC-SVG-20010904/DTD/svg10.dtd">
<svg version="1.0" xmlns="http://www.w3.org/2000/svg"
 width="1600.000000pt" height="1600.000000pt" viewBox="0 0 1600.000000 1600.000000"
 preserveAspectRatio="xMidYMid meet">
<metadata>
Created by potrace 1.14, written by Peter Selinger 2001-2017
</metadata>
<g transform="translate(0.000000,1600.000000) scale(0.100000,-0.100000)"
fill="#000000" stroke="none">
<path d="M1500 11185 l0 -875 870 0 870 0 -5 -62 c-3 -35 -7 -83 -10 -108 -2
-25 -7 -79 -10 -120 -7 -86 -13 -155 -20 -220 -2 -25 -7 -79 -10 -120 -3 -41
-8 -95 -10 -120 -2 -25 -7 -76 -10 -115 -5 -69 -11 -136 -20 -225 -3 -25 -8
-81 -11 -125 -4 -44 -8 -93 -10 -110 -2 -16 -6 -70 -9 -119 -4 -49 -8 -97 -10
-107 -2 -10 -7 -62 -10 -115 -4 -53 -8 -104 -10 -113 -1 -9 -6 -54 -9 -101 -4
-47 -9 -105 -11 -130 -3 -25 -7 -79 -11 -120 -3 -41 -8 -88 -9 -105 -2 -16 -6
-66 -10 -110 -3 -44 -8 -100 -10 -125 -3 -25 -7 -74 -10 -110 -3 -36 -7 -83
-9 -105 -2 -22 -7 -78 -11 -125 -3 -47 -8 -96 -10 -110 -2 -14 -7 -63 -10
-110 -4 -47 -8 -101 -10 -120 -2 -19 -6 -71 -10 -115 -3 -44 -8 -96 -10 -115
-2 -19 -7 -69 -10 -110 -4 -41 -8 -88 -10 -105 -2 -16 -6 -70 -10 -120 -3 -49
-8 -101 -10 -115 -2 -14 -6 -63 -10 -110 -3 -47 -8 -101 -10 -120 -2 -19 -6
-71 -10 -115 -4 -44 -8 -93 -10 -110 -1 -16 -6 -68 -9 -115 -4 -47 -9 -96 -11
-110 -2 -14 -7 -68 -10 -120 -4 -52 -8 -108 -11 -125 -2 -16 -6 -70 -9 -120
-4 -49 -8 -101 -10 -115 -2 -14 -7 -59 -10 -100 -3 -41 -7 -95 -10 -120 -6
-56 -14 -145 -20 -230 -3 -36 -7 -85 -10 -110 -2 -25 -7 -79 -10 -120 -4 -41
-8 -86 -10 -100 -2 -14 -6 -65 -10 -115 -3 -49 -8 -103 -10 -120 -2 -16 -7
-66 -10 -110 -3 -44 -8 -98 -10 -120 -2 -22 -7 -74 -10 -115 -8 -106 -22 -262
-30 -340 -2 -25 -7 -76 -10 -115 -3 -38 -8 -88 -10 -110 -3 -22 -7 -71 -10
-110 -5 -72 -12 -152 -20 -242 -2 -29 -1 -53 3 -54 4 0 16 -2 27 -3 11 -2 63
-6 115 -10 52 -4 109 -9 125 -11 17 -2 59 -6 95 -9 129 -11 306 -26 355 -31
28 -2 82 -7 120 -10 39 -3 90 -8 115 -10 25 -2 68 -7 95 -9 28 -3 82 -8 120
-11 39 -3 90 -8 115 -10 25 -2 82 -7 127 -10 46 -3 92 -8 102 -10 11 -2 66 -7
124 -10 l104 -7 2 59 c1 33 3 69 5 80 2 10 7 55 10 99 8 101 15 177 21 234 3
25 7 77 10 115 3 39 8 94 10 122 6 59 12 136 20 233 3 36 8 83 10 106 3 22 7
72 10 110 3 38 7 89 10 114 6 53 13 136 20 240 3 41 7 91 10 110 2 19 7 69 10
110 3 41 7 91 10 110 2 19 7 71 11 115 3 44 8 98 10 120 2 22 6 76 9 120 3 44
8 91 10 105 2 14 7 63 10 110 4 47 8 101 10 120 2 19 6 69 9 110 4 41 8 95 11
120 2 25 7 79 10 120 3 41 8 91 10 110 2 19 6 69 10 110 3 41 8 95 11 120 2
25 7 76 9 114 3 38 7 86 9 105 3 20 8 72 11 116 3 44 8 98 10 120 5 39 8 71
20 230 3 44 8 94 10 110 2 17 7 66 10 110 3 44 8 98 10 120 2 22 6 72 10 110
3 39 12 144 20 235 8 91 17 197 20 235 4 39 8 86 10 105 5 38 16 170 30 345 6
77 13 156 20 225 2 25 7 77 10 115 3 39 7 90 10 115 4 43 7 70 20 235 6 67 10
108 20 213 4 49 12 142 20 240 3 32 7 80 10 107 2 28 7 82 10 120 3 39 8 88
10 110 2 22 6 74 10 115 3 41 8 95 10 120 2 25 7 81 10 125 4 44 8 91 10 105
2 14 7 65 10 113 4 49 8 96 10 105 2 10 4 20 4 25 1 4 478 7 1061 7 l1060 0 0
-1875 0 -1875 875 0 875 0 0 1875 0 1875 1070 0 c1012 0 1070 -1 1071 -17 1
-10 3 -29 4 -43 1 -14 5 -65 9 -115 4 -49 9 -101 11 -115 3 -14 7 -60 10 -103
7 -99 14 -179 20 -237 3 -25 8 -79 11 -120 3 -41 7 -91 9 -110 2 -19 6 -69 9
-110 4 -41 9 -95 11 -120 2 -25 7 -79 10 -120 4 -41 8 -91 10 -110 2 -19 6
-65 9 -102 3 -38 9 -98 12 -135 3 -38 7 -84 9 -103 2 -19 6 -71 10 -115 3 -44
8 -96 10 -115 6 -51 14 -144 20 -225 3 -38 7 -90 10 -115 2 -25 7 -79 10 -120
4 -41 8 -93 10 -115 2 -22 7 -71 10 -110 3 -38 8 -92 11 -120 6 -57 11 -118
19 -225 3 -41 8 -95 11 -119 2 -25 7 -72 9 -105 3 -34 7 -81 9 -106 2 -25 7
-81 11 -125 3 -44 8 -95 11 -113 2 -19 6 -70 9 -115 3 -45 7 -93 9 -107 3 -14
7 -63 11 -110 3 -47 8 -103 10 -125 2 -22 6 -76 10 -120 4 -44 8 -96 10 -115
2 -19 6 -69 10 -110 3 -41 8 -96 10 -122 3 -27 7 -69 10 -95 2 -27 7 -77 10
-113 9 -116 17 -204 20 -240 10 -111 16 -181 20 -230 10 -131 16 -197 20 -230
2 -19 7 -69 10 -110 3 -41 8 -95 10 -120 5 -46 10 -112 20 -230 3 -36 7 -81 9
-100 3 -19 8 -75 12 -125 10 -134 22 -270 29 -350 2 -22 7 -71 10 -110 3 -38
8 -92 11 -120 4 -50 8 -86 19 -220 4 -38 8 -86 10 -105 2 -19 7 -75 10 -124 4
-49 8 -103 10 -119 2 -16 7 -66 11 -111 3 -44 8 -94 9 -111 2 -16 3 -45 4 -64
l1 -33 98 7 c53 4 111 9 127 10 17 2 66 6 110 10 44 3 96 8 115 10 19 2 73 6
120 10 47 4 99 8 115 10 17 2 64 7 105 9 69 5 107 9 230 21 25 3 79 7 120 11
41 3 91 7 110 9 19 2 73 6 120 10 47 3 96 8 110 10 14 2 63 7 110 11 47 3 96
8 110 9 14 2 30 3 37 4 6 1 10 13 8 29 -2 15 -6 63 -10 107 -3 44 -8 95 -10
113 -2 18 -7 74 -10 125 -4 50 -8 102 -10 114 -2 12 -6 55 -9 95 -13 153 -16
184 -20 228 -5 46 -12 123 -21 245 -3 39 -8 90 -10 115 -3 25 -7 77 -10 115
-4 39 -8 90 -10 115 -3 25 -7 72 -10 105 -3 33 -7 85 -10 115 -3 30 -8 84 -11
120 -5 70 -9 113 -19 230 -9 96 -11 117 -19 225 -4 50 -9 104 -11 120 -2 17
-7 67 -10 110 -3 44 -8 96 -10 115 -3 19 -8 71 -11 115 -3 44 -7 98 -9 120
-12 117 -21 222 -30 340 -4 44 -9 98 -11 120 -2 22 -6 67 -9 100 -9 111 -16
180 -20 225 -3 25 -7 77 -10 115 -3 39 -7 90 -10 115 -2 25 -7 74 -10 110 -3
36 -7 88 -10 115 -2 28 -7 84 -10 125 -3 41 -7 91 -10 110 -2 19 -7 71 -10
115 -4 44 -8 98 -10 120 -2 22 -6 69 -10 105 -3 36 -7 85 -10 110 -4 42 -7 84
-20 245 -3 33 -7 80 -10 105 -6 63 -17 188 -20 230 -5 72 -16 196 -20 235 -6
51 -13 131 -20 220 -3 39 -8 90 -10 115 -3 25 -7 77 -10 115 -3 39 -7 93 -10
120 -11 119 -15 164 -20 225 -6 69 -12 142 -20 225 -8 82 -14 155 -20 240 -3
44 -8 94 -10 110 -2 17 -7 66 -10 110 -3 44 -8 94 -10 110 -2 17 -6 72 -10
123 l-8 92 867 0 866 0 0 875 0 875 -6500 0 -6500 0 0 -875z"/>
</g>
</svg>
